<?xml version="1.0" encoding="UTF-8"?>
<svg id="Layer_1" xmlns="http://www.w3.org/2000/svg" version="1.1" xmlns:xlink="http://www.w3.org/1999/xlink" viewBox="0 0 256 256">
  <!-- Generator: Adobe Illustrator 30.3.0, SVG Export Plug-In . SVG Version: 2.1.3 Build 182)  -->
  <defs>
    <style>
      .st0 {
        fill: #686d77;
      }

      .st1 {
        fill: #e8820c;
      }

      .st2 {
        stroke: #3a3a40;
        stroke-width: 2px;
      }

      .st2, .st3, .st4 {
        fill: none;
      }

      .st3 {
        stroke: #ecf0f5;
        stroke-linejoin: round;
        stroke-width: 1.4px;
      }

      .st5 {
        fill: #d6dbe2;
      }

      .st6 {
        fill: url(#linear-gradient);
      }

      .st7 {
        fill: #969ca6;
      }

      .st4 {
        stroke: #e8820c;
        stroke-width: 15px;
      }
    </style>
    <linearGradient id="linear-gradient" x1="-827.3" y1="667.4" x2="-827.3" y2="666.4" gradientTransform="translate(211905 170853) scale(256 -256)" gradientUnits="userSpaceOnUse">
      <stop offset="0" stop-color="#2c2c30"/>
      <stop offset="1" stop-color="#141416"/>
    </linearGradient>
  </defs>
  <rect class="st6" width="256" height="256" rx="57.6" ry="57.6"/>
  <rect class="st2" x="2" y="2" width="252" height="252" rx="55.6" ry="55.6"/>
  <g>
    <path class="st4" d="M65.3,192.3c-34.6-34.6-34.6-90.7,0-125.3,34.6-34.6,90.7-34.6,125.3,0,34.6,34.6,34.6,90.7,0,125.3"/>
    <polygon class="st1" points="179.4 171.7 167.8 215.1 211.2 203.5 179.4 171.7"/>
  </g>
  <g id="cube">
    <polygon class="st0" points="73.6 105.3 128 139.3 128 184.6 73.6 150.6 73.6 105.3"/>
    <polygon class="st7" points="182.4 105.3 128 139.3 128 184.6 182.4 150.6 182.4 105.3"/>
    <polygon class="st5" points="128 71.4 182.4 105.3 128 139.3 73.6 105.3 128 71.4"/>
    <polygon class="st3" points="128 71.4 182.4 105.3 128 139.3 73.6 105.3 128 71.4"/>
  </g>
</svg>